<svg height="512" viewBox="0 0 512 512" width="512" xmlns="http://www.w3.org/2000/svg"><path d="m488 488h-464v-336l232-104 232 104z" fill="#a55e00"/><path d="m72 184h368v304h-368z" fill="#844b02"/><path d="m272 368h80v64h-80z" fill="#ce9c77"/><path d="m280 368h64v8h-64z" fill="#ce9c77"/><path d="m304 368h16v32h-16z" fill="#c94536"/><path d="m272 304h72v64h-72z" fill="#efb58b"/><path d="m304 304h16v32h-16z" fill="#de4c3b"/><path d="m344 368h64v64h-64z" fill="#efb58b"/><path d="m368 368h16v32h-16z" fill="#4298d1"/><path d="m408 440h-136a8 8 0 0 1 0-16h136a8 8 0 0 1 0 16z" fill="#d38e14"/><path d="m152 304v40l56 64h40v-56a48 48 0 0 0 -48-48z" fill="#b6eaef"/><path d="m232 408v-40a48 48 0 0 0 -48-48h-32v24l56 64z" fill="#acdee3"/><path d="m104 368h48v16l24 24h80v40h-152z" fill="#f5b02e"/><path d="m488 152h-464l232-128z" fill="#ec9e15"/><path d="m72 192h368v56h-368z" fill="#c3c3c3"/><path d="m72 184h368v32h-368z" fill="#a8a8a8"/><path d="m72 184h368v8h-368z" fill="#878787"/><path d="m168 368h-16-48v32h64z" fill="#3e8cc7"/><path d="m224 112h64v16h-64z" fill="#c48412"/><path d="m224 80h64v16h-64z" fill="#c48412"/><circle cx="128" cy="456" fill="#e4e4e2" r="24"/><path d="m128 488a32 32 0 1 1 32-32 32.032 32.032 0 0 1 -32 32zm0-48a16 16 0 1 0 16 16 16.021 16.021 0 0 0 -16-16z" fill="#878787"/><path d="m152 344h16a16 16 0 0 1 16 16v16h16a16 16 0 0 1 16 16v16h-40l-24-24z" fill="#de4c3b"/><path d="m248 280h32v176h-32z" fill="#ec9e15"/><circle cx="224" cy="456" fill="#e4e4e2" r="24"/><path d="m224 440a16 16 0 1 0 16 16 16.021 16.021 0 0 0 -16-16zm0 48a32 32 0 1 1 32-32 32.032 32.032 0 0 1 -32 32z" fill="#878787"/></svg>